<?xml version="1.0" encoding="utf-8"?>
<!-- Generator: Adobe Illustrator 24.1.2, SVG Export Plug-In . SVG Version: 6.00 Build 0)  -->
<svg version="1.1" id="Layer_1" xmlns="http://www.w3.org/2000/svg" xmlns:xlink="http://www.w3.org/1999/xlink" x="0px" y="0px"
	 viewBox="0 0 600 326.5" style="enable-background:new 0 0 600 326.5;" xml:space="preserve">
<style type="text/css">
	.st0{fill:url(#SVGID_1_);}
	.st1{fill:#FFFFFF;}
	.st2{fill:url(#SVGID_2_);}
</style>
<linearGradient id="SVGID_1_" gradientUnits="userSpaceOnUse" x1="414.4456" y1="508.1485" x2="157.5071" y2="-257.314">
	<stop  offset="0.131" style="stop-color:#00B6B9"/>
	<stop  offset="0.7369" style="stop-color:#3B63D9"/>
</linearGradient>
<path class="st0" d="M0,261.4V104.6C0,46.9,46.9,0,104.6,0s104.6,46.9,104.6,104.6c0,37.4-19.4,70.8-50.2,89.4l46.3,67.5h-61.7
	L53,129.5h61.7l15.3,22.3c17-9.1,28.3-26.9,28.3-47.3c0-29.6-24.1-53.7-53.7-53.7s-53.7,24.1-53.7,53.7l0,156.9H0z M392.1,73
	l75.5,188l-25.6,65.5h58.4L526,261L450.5,73H392.1z M541.6,73L496,185.5h58.4L600,73H541.6z M403.1,165c-0.5-53.6-42.6-97-94.4-97
	c-52.1,0-94.4,43.9-94.4,97.9c0,45.8,30.5,84.2,71.6,94.8l30.6-44.6c-2.5,0.5-5.1,0.8-7.8,0.8c-26.2,0-47.6-22.9-47.6-51
	s21.3-51,47.6-51s47.6,22.9,47.6,51v84.4v11.3h46.9v-95.7L403.1,165L403.1,165z"/>
</svg>
